PathFileType	4	(x/y/z)	S09_M20_T07
DataRate	CameraRate	NumFrames	NumMarkers	Units	OrigDataRate	OrigDataStartFrame	OrigNumFrames
240	240	10	51	mm	240	214	570
Frame#	Time	Sternum			R.Acromium			L.Acromium			Top.Head			R.ASIS			L.ASIS			R.PSIS			L.PSIS			R.Great.Tro			L.Great.Tro			R.Iliac.Crest			L.Iliac.Crest			V.Sacral			R.Thigh.Upper.Post			R.Thigh.Lower.Ant			R.Thigh.Lower.Post			R.Thigh.Upper.Ant			R.Knee.Lat			R.Knee.Med			R.Shank.Upper.Post			R.Shank.Lower.Ant			R.Shank.Lower.Post			R.Shank.Upper.Ant			R.Ankle.Lat			R.Ankle.Med			R.Heel.Upper			R.Heel.Med			R.Heel.Lat			R.Toe.Lat			R.Toe.Med			R.Toe.Tip			L.Thigh.Upper.Post			L.Thigh.Lower.Ant			L.Thigh.Lower.Post			L.Thigh.Upper.Ant			L.Knee.Lat			L.Knee.Med			L.Shank.Upper.Post			L.Shank.Lower.Ant			L.Shank.Lower.Post			L.Shank.Upper.Ant			L.Ankle.Lat			L.Ankle.Med			L.Heel.Upper			L.Heel.Med			L.Heel.Lat			L.Toe.Lat			L.Toe.Med			L.Toe.Tip			Cervical.Spine			Back			
		X1	Y1	Z1	X2	Y2	Z2	X3	Y3	Z3	X4	Y4	Z4	X5	Y5	Z5	X6	Y6	Z6	X7	Y7	Z7	X8	Y8	Z8	X9	Y9	Z9	X10	Y10	Z10	X11	Y11	Z11	X12	Y12	Z12	X13	Y13	Z13	X14	Y14	Z14	X15	Y15	Z15	X16	Y16	Z16	X17	Y17	Z17	X18	Y18	Z18	X19	Y19	Z19	X20	Y20	Z20	X21	Y21	Z21	X22	Y22	Z22	X23	Y23	Z23	X24	Y24	Z24	X25	Y25	Z25	X26	Y26	Z26	X27	Y27	Z27	X28	Y28	Z28	X29	Y29	Z29	X30	Y30	Z30	X31	Y31	Z31	X32	Y32	Z32	X33	Y33	Z33	X34	Y34	Z34	X35	Y35	Z35	X36	Y36	Z36	X37	Y37	Z37	X38	Y38	Z38	X39	Y39	Z39	X40	Y40	Z40	X41	Y41	Z41	X42	Y42	Z42	X43	Y43	Z43	X44	Y44	Z44	X45	Y45	Z45	X46	Y46	Z46	X47	Y47	Z47	X48	Y48	Z48	X49	Y49	Z49	X50	Y50	Z50	X51	Y51	Z51	

214	0.8875	281.48	1134.6	304.06	137.39	1378	455.53	148.29	1384	148.28	95.255	1671.1	292	267.36	978.04	392.09	217.86	956.55	148.01	34.706	994.97	357.17	28.471	999.58	267.45	217.36	900.82	481.17	110.87	878.11	98.015	174.95	1056.7	454.78	111.23	1054.2	126.58	9.3366	964.05	312.19	318.92	667.05	445.43	415.33	610.09	380.78	347.59	582.52	411.44	381.77	687.71	416.52	425.11	530.23	374.81	394.72	515.98	258.29	385.99	346.86	400.05	456.64	294.57	374.11	390.75	270.81	391.82	446.69	367.49	385.36	431.56	90.64	372.78	446.24	102.18	282.7	367.09	73.516	325.08	378.53	43.193	295.1	371.38	41.608	359.37	531.89	49.796	400.16	573.6	61.78	295.7	614.91	91.291	337.24	-32.67	673.06	174.51	-8.7738	552.55	143.28	-55.161	585.4	183.93	11.996	638.61	127.94	-56.011	490.68	153.7	2.6894	468.99	274.66	-177.45	426.62	153.45	-195.63	317.62	155.51	-230.52	371.34	162.98	-141.68	373.49	147.65	-359.21	208.66	184.29	-338.39	189.59	272.33	-418.46	242.84	246.19	-426.47	222.55	282.19	-446.16	227.19	223.03	-380.38	74.865	159.72	-337.5	51.204	263	-309.14	36.491	203.37	NaN	NaN	NaN	16.798	1159	285.08
215	0.89167	287.92	1135.6	304.96	143.34	1379	455.99	154.61	1384.7	148.88	100.96	1671.9	292.5	273.47	979.21	393.02	224.37	957.01	148.96	40.85	995.67	357.4	34.709	1000	267.64	223.45	901.67	481.8	117.57	878.25	98.738	180.71	1057.8	455.33	118.05	1054.5	126.93	15.569	964.54	312.39	324.67	667.43	445.93	420.75	610.17	381.05	352.96	582.82	411.79	387.56	687.87	416.95	430.09	530.11	374.99	399.63	516.15	258.51	389.72	347.09	400.34	459.82	294.17	374.08	393.74	270.99	392.02	450.58	367.19	385.4	432.52	90.586	372.75	447.08	101.89	282.64	367.59	73.84	325.16	378.78	43.436	295.17	371.71	41.93	359.46	532.48	48.961	400.14	574.18	60.097	295.43	615.95	89.174	336.85	-24.86	672.17	174.53	-0.11466	551.95	142.89	-46.725	584.33	183.66	20.058	638.21	127.86	-47.077	490.12	152.95	11.967	467.99	273.78	-168.8	427.19	152.94	-187.98	318.37	154.76	-222.34	372.37	162.45	-133.54	373.76	146.89	-352.19	210.91	183.63	-331.52	191.49	271.74	-409.63	247.1	245.7	-418.25	227.18	281.78	-437.9	232.26	222.64	-377.2	77.557	159.69	-334.72	52.821	262.84	-307.48	36.091	203.03	NaN	NaN	NaN	23.082	1159.9	285.23
216	0.89583	294.29	1136.7	305.85	149.25	1380.1	456.43	160.87	1385.5	149.45	106.66	1672.7	292.99	279.53	980.37	393.94	230.79	957.58	149.89	46.958	996.4	357.68	40.88	1000.5	267.89	229.51	902.49	482.42	124.19	878.47	99.474	186.47	1058.8	455.91	124.76	1055	127.32	21.749	965.08	312.65	330.25	667.75	446.43	425.98	610.15	381.36	358.12	583.07	412.14	393.18	687.95	417.41	434.86	529.93	375.22	404.32	516.26	258.77	393.27	347.28	400.61	462.84	293.76	374.07	396.58	271.14	392.2	454.28	366.86	385.47	433.4	90.541	372.72	447.86	101.61	282.58	368.06	74.139	325.23	379.01	43.659	295.24	372.01	42.235	359.53	533.01	48.22	400.16	574.71	58.526	295.18	616.9	87.189	336.49	-17.021	671.27	174.48	8.6444	551.36	142.47	-38.221	583.24	183.32	28.181	637.81	127.74	-38.011	489.53	152.18	21.362	467.01	272.88	-160.01	427.72	152.4	-180.17	319.09	154.02	-214	373.36	161.91	-125.24	374	146.13	-344.95	213.18	183.02	-324.47	193.41	271.2	-400.57	251.32	245.24	-409.8	231.77	281.39	-429.38	237.29	222.26	-373.69	80.379	159.64	-331.66	54.565	262.68	-305.55	35.717	202.68	NaN	NaN	NaN	29.316	1160.7	285.41
217	0.9	300.6	1137.9	306.73	155.13	1381.3	456.85	167.08	1386.4	150	112.36	1673.6	293.49	285.53	981.52	394.83	237.1	958.24	150.78	53.029	997.16	358.02	46.983	1001.1	268.2	235.53	903.29	483.03	130.73	878.77	100.22	192.22	1059.9	456.52	131.35	1055.6	127.76	27.877	965.65	312.97	335.64	668.03	446.92	431.04	610.04	381.71	363.08	583.27	412.49	398.66	687.94	417.89	439.44	529.71	375.49	408.77	516.33	259.06	396.62	347.44	400.86	465.7	293.34	374.11	399.25	271.27	392.35	457.79	366.52	385.57	434.22	90.507	372.67	448.57	101.36	282.5	368.5	74.415	325.27	379.23	43.862	295.29	372.29	42.523	359.59	533.48	47.57	400.19	575.18	57.067	294.95	617.77	85.34	336.16	-9.1546	670.35	174.37	17.497	550.77	142	-29.651	582.13	182.91	36.361	637.41	127.57	-28.818	488.93	151.36	30.862	466.04	271.95	-151.06	428.22	151.81	-172.18	319.77	153.32	-205.51	374.31	161.36	-116.78	374.2	145.38	-337.49	215.48	182.45	-317.25	195.37	270.72	-391.29	255.48	244.8	-401.12	236.29	281.01	-420.6	242.26	221.89	-369.8	83.314	159.57	-328.29	56.421	262.51	-303.29	35.387	202.3	NaN	NaN	NaN	35.499	1161.6	285.61
218	0.90417	306.84	1139.1	307.59	160.97	1382.4	457.26	173.23	1387.2	150.52	118.06	1674.5	293.99	291.49	982.65	395.69	243.32	958.99	151.63	59.061	997.94	358.42	53.017	1001.6	268.59	241.52	904.07	483.64	137.19	879.15	100.98	197.98	1060.9	457.16	137.81	1056.2	128.25	33.953	966.25	313.36	340.86	668.28	447.4	435.92	609.85	382.09	367.84	583.43	412.84	403.98	687.87	418.39	443.83	529.46	375.79	412.99	516.37	259.36	399.79	347.57	401.08	468.4	292.91	374.17	401.75	271.38	392.48	461.12	366.16	385.72	434.96	90.484	372.61	449.23	101.12	282.42	368.89	74.668	325.3	379.43	44.047	295.33	372.55	42.797	359.64	533.9	47.006	400.24	575.6	55.721	294.73	618.57	83.626	335.86	-1.2604	669.43	174.19	26.438	550.19	141.5	-21.019	581.01	182.45	44.596	637.03	127.37	-19.506	488.33	150.52	40.453	465.11	271.01	-141.98	428.67	151.19	-164.03	320.42	152.65	-196.86	375.22	160.79	-108.18	374.38	144.63	-329.84	217.79	181.94	-309.87	197.34	270.3	-381.82	259.56	244.4	-392.25	240.72	280.64	-411.6	247.15	221.52	-365.53	86.341	159.47	-324.59	58.375	262.33	-300.69	35.119	201.92	NaN	NaN	NaN	41.631	1162.6	285.84
219	0.90833	313.02	1140.3	308.43	166.77	1383.7	457.66	179.32	1388.1	151.01	123.75	1675.5	294.49	297.39	983.76	396.52	249.44	959.84	152.45	65.051	998.75	358.89	58.981	1002.3	269.04	247.47	904.84	484.24	143.58	879.61	101.75	203.75	1062	457.82	144.14	1056.9	128.79	39.975	966.9	313.82	345.9	668.49	447.88	440.63	609.6	382.49	372.4	583.55	413.2	409.14	687.75	418.9	448.05	529.19	376.11	416.99	516.37	259.68	402.77	347.68	401.27	470.95	292.49	374.27	404.1	271.47	392.57	464.27	365.8	385.89	435.64	90.472	372.54	449.82	100.9	282.33	369.25	74.901	325.31	379.62	44.215	295.36	372.78	43.057	359.68	534.28	46.521	400.31	575.97	54.485	294.54	619.3	82.046	335.59	6.6614	668.51	173.96	35.461	549.63	140.97	-12.328	579.9	181.93	52.882	636.67	127.13	-10.082	487.72	149.66	50.123	464.2	270.07	-132.76	429.09	150.53	-155.71	321.03	152.02	-188.07	376.1	160.2	-99.426	374.53	143.89	-322	220.12	181.48	-302.33	199.34	269.93	-372.21	263.54	244.04	-383.22	245.03	280.3	-402.41	251.91	221.17	-360.83	89.438	159.35	-320.53	60.41	262.13	-297.68	34.932	201.53	NaN	NaN	NaN	47.711	1163.5	286.11
220	0.9125	319.12	1141.6	309.25	172.54	1384.9	458.05	185.34	1389.1	151.47	129.43	1676.5	294.98	303.25	984.84	397.31	255.46	960.77	153.23	70.997	999.6	359.42	64.874	1002.9	269.55	253.37	905.61	484.83	149.89	880.14	102.52	209.53	1063.1	458.51	150.33	1057.7	129.37	45.942	967.58	314.34	350.79	668.69	448.35	445.18	609.31	382.91	376.79	583.65	413.56	414.16	687.58	419.42	452.1	528.9	376.46	420.79	516.34	260.02	405.57	347.77	401.44	473.35	292.07	374.4	406.3	271.55	392.64	467.25	365.43	386.09	436.26	90.473	372.46	450.37	100.7	282.23	369.58	75.116	325.31	379.79	44.367	295.38	372.99	43.305	359.71	534.61	46.106	400.37	576.3	53.358	294.35	619.96	80.596	335.34	14.611	667.59	173.67	44.561	549.1	140.42	-3.5803	578.79	181.37	61.218	636.32	126.86	-0.55146	487.11	148.78	59.862	463.33	269.13	-123.42	429.47	149.83	-147.24	321.61	151.43	-179.14	376.94	159.6	-90.537	374.65	143.16	-313.97	222.45	181.08	-294.63	201.35	269.63	-362.49	267.39	243.71	-374.06	249.2	279.99	-393.05	256.53	220.85	-355.7	92.577	159.2	-316.09	62.507	261.92	-294.25	34.846	201.12	NaN	NaN	NaN	53.738	1164.5	286.43
221	0.91667	325.15	1142.9	310.04	178.28	1386.2	458.42	191.3	1390	151.91	135.11	1677.5	295.47	309.06	985.9	398.06	261.4	961.78	153.99	76.895	1000.5	360.01	70.696	1003.6	270.13	259.22	906.39	485.42	156.12	880.74	103.29	215.33	1064.2	459.2	156.38	1058.6	130	51.854	968.3	314.93	355.52	668.88	448.81	449.57	608.97	383.36	381.01	583.73	413.92	419.03	687.37	419.94	455.99	528.6	376.82	424.39	516.31	260.37	408.2	347.85	401.59	475.61	291.66	374.55	408.35	271.63	392.68	470.06	365.06	386.31	436.81	90.485	372.38	450.86	100.52	282.13	369.88	75.315	325.29	379.94	44.506	295.39	373.18	43.541	359.73	534.9	45.755	400.44	576.59	52.334	294.18	620.57	79.27	335.12	22.59	666.69	173.34	53.734	548.59	139.83	5.2221	577.7	180.76	69.6	636	126.56	9.0776	486.52	147.88	69.658	462.52	268.21	-113.95	429.82	149.09	-138.62	322.15	150.87	-170.07	377.74	158.98	-81.514	374.74	142.44	-305.78	224.79	180.74	-286.77	203.38	269.38	-352.69	271.1	243.44	-364.81	253.19	279.71	-383.56	260.96	220.54	-350.11	95.732	159.01	-311.25	64.647	261.68	-290.33	34.884	200.71	NaN	NaN	NaN	59.712	1165.6	286.79
222	0.92083	331.11	1144.3	310.79	183.98	1387.5	458.79	197.19	1391	152.32	140.78	1678.6	295.95	314.82	986.93	398.77	267.24	962.87	154.7	82.742	1001.4	360.66	76.446	1004.4	270.77	265.02	907.17	486.01	162.28	881.4	104.07	221.14	1065.3	459.92	162.29	1059.6	130.67	57.708	969.05	315.57	360.09	669.06	449.26	453.8	608.61	383.81	385.06	583.8	414.28	423.76	687.15	420.46	459.72	528.3	377.18	427.83	516.26	260.73	410.67	347.92	401.71	477.73	291.26	374.72	410.26	271.7	392.7	472.7	364.7	386.56	437.32	90.508	372.29	451.31	100.35	282.02	370.15	75.5	325.27	380.08	44.634	295.39	373.36	43.767	359.74	535.16	45.46	400.51	576.85	51.409	294.03	621.12	78.062	334.93	30.598	665.8	172.97	62.974	548.11	139.23	14.078	576.63	180.11	78.027	635.71	126.24	18.799	485.94	146.97	79.504	461.76	267.3	-104.38	430.14	148.3	-129.84	322.66	150.36	-160.88	378.51	158.34	-72.363	374.82	141.74	-297.42	227.12	180.46	-278.76	205.41	269.19	-342.85	274.65	243.22	-355.49	256.99	279.47	-373.99	265.19	220.26	-344.06	98.875	158.78	-305.96	66.814	261.43	-285.89	35.063	200.29	NaN	NaN	NaN	65.633	1166.6	287.19
223	0.925	337	1145.7	311.51	189.65	1388.9	459.15	203.01	1392	152.7	146.43	1679.7	296.42	320.53	987.93	399.44	273.01	964.02	155.39	88.535	1002.3	361.34	82.127	1005.2	271.46	270.75	907.96	486.59	168.37	882.12	104.85	226.96	1066.3	460.63	168.06	1060.6	131.38	63.504	969.84	316.27	364.52	669.24	449.71	457.89	608.23	384.29	388.96	583.86	414.65	428.34	686.9	420.98	463.31	527.99	377.56	431.12	516.2	261.1	412.99	347.99	401.82	479.73	290.86	374.91	412.04	271.76	392.71	475.2	364.34	386.82	437.77	90.54	372.19	451.72	100.2	281.92	370.4	75.675	325.23	380.21	44.752	295.38	373.52	43.984	359.74	535.38	45.213	400.57	577.07	50.576	293.88	621.63	76.964	334.76	38.636	664.93	172.57	72.277	547.68	138.62	22.985	575.58	179.43	86.496	635.45	125.91	28.607	485.39	146.06	89.391	461.06	266.42	-94.696	430.44	147.49	-120.93	323.15	149.89	-151.57	379.25	157.69	-63.09	374.88	141.05	-288.93	229.43	180.23	-270.6	207.45	269.04	-333.01	278.02	243.05	-346.14	260.57	279.27	-364.35	269.18	220.02	-337.53	101.98	158.53	-300.2	68.989	261.15	-280.89	35.403	199.85	NaN	NaN	NaN	71.502	1167.7	287.64
